<svg version="1.1" xmlns="http://www.w3.org/2000/svg" x="0px" y="0px" width="612px" height="612px" viewBox="0 0 612 612" style="enable-background:new 0 0 612 612">
	<path fill="#FFFFFF" d="M353.812,172.125c-7.478,0-14.21,2.926-19.335,7.612l-0.058-0.077L219.67,284.848c-5.91,5.451-9.295,13.101-9.295,21.152
				s3.385,15.701,9.295,21.152L334.42,432.34l0.058-0.076c5.125,4.686,11.857,7.611,19.335,7.611
				c15.836,0,28.688-12.852,28.688-28.688c0-8.357-3.634-15.836-9.353-21.076l0.058-0.076L281.52,306l91.685-84.054l-0.058-0.077
				c5.719-5.221,9.353-12.68,9.353-21.057C382.5,184.977,369.648,172.125,353.812,172.125z M306,0C137.012,0,0,137.012,0,306
				s137.012,306,306,306s306-137.012,306-306S474.988,0,306,0z M306,554.625C168.912,554.625,57.375,443.088,57.375,306
				S168.912,57.375,306,57.375S554.625,168.912,554.625,306S443.088,554.625,306,554.625z"/>
</svg>